<?xml version="1.0" encoding="UTF-8" standalone="no"?>
<svg xmlns:rdf="http://www.w3.org/1999/02/22-rdf-syntax-ns#" xmlns="http://www.w3.org/2000/svg" height="1169pt" width="1478pt" version="1.1" xmlns:cc="http://creativecommons.org/ns#" xmlns:dc="http://purl.org/dc/elements/1.1/" viewBox="0 0 1478 1169">
<path d="m731.66 0h34.76c48.69 7.18 102.74 5.64 144.56 34.97 6.03-3.39 12.8-2.47 19.46-2.33 6.99-10.41 20.69-6.09 29.17-0.2 52.09 39.93 110.19 73.1 153.39 123.59 25 27.37 51.1 57.63 56.2 95.75 2.5 10.59-1.2 23.3 7.6 31.59 7.8 12.77 24.3 17.45 29.4 32.42 10 28.17 7.4 59.27 1.7 88.14-3.4 35.5-23.4 67.3-50.1 89.93-8.5 5.71-14.4 16.85-12 27.19 1.4 8.71-10 14.22-6.7 22.81 7.3 24.79 9.4 51.42 1.1 76.17 17.2-1.43 33.2-23.72 49.8-9.03 16.7-6.96 14.6-30.94 25.1-43.81 7.8-7.27 3.4-17.53 4.3-26.65 2-34.88 22-65.49 26.1-100.05 0.8-16.27 11.2-29.58 23.4-39.37 2.5-33.52-9.2-68.85 3.8-101.35 8.6-8.22-0.6-17.74-4.6-25.78 9 2.47 15.5 10.11 20 17.87 24.3 22.29 18.7 59.29 22.3 88.89 4.1 16.88-10.8 33.61 1.6 48.49 0.7 34.32-9.7 68-20.5 100.34-1.1 53.63-35.4 101.54-77 133.04-2.9 20.57-27.7 17.45-42.5 22.42-20 8.39-39.6 17.9-58.8 28.17-20.5 11.36-45.3 14.87-63 31-13.3 14.12-29.5 25.52-40.5 41.68-2.5 4.22 4.6 3.63 6.9 1.93 48.9-26.96 102.4-44.35 151.5-70.67 9.9-5.66 22.2-14.76 33-6.12 27.6-18.08 56.3-36.22 88-46.83 31.2-27.33 58.9-58.71 85.5-90.49 4.7-10.32 16.6-2.72 23-10.35 7.1-24.76 25.3-44.17 40.3-64.43 7.2-8.31 12.9-18.77 23.1-23.88 7.9-6.36 7.2-17.5 12.1-25.41 9.7 8.01-3.9 25.48 4.9 31.73v7.12c-12.1 35.96-26.1 75.81-57.7 99.55-0.6 6.81 1.7 14.6-2.5 20.71-27.6 35.94-57.2 70.93-92.9 99.19-25.1 33.38-69.2 38.28-105.7 51.26-2.5 8.09-11.8 11.25-15.1 17.66 40 0 84.6 5.15 116 32.05 27.3 14.09 53.3 31.06 75 52.92 9.1 6.65 0.6 26.9 15.9 24.16 29.2 31.18 52 69.52 65.5 110.22-4.4 12.79 0.6 27.59-6.7 39.99-8.2-4.5 2.6-27.4-12.8-25.4-24.9-19.33-46.9-43.44-63.2-70.6-8.1-8.73-14.3-19.49-24.3-26.19-19.9 8.26-37.8-6.76-54.1-16.45-19.1-10.28-38.2-21.18-54.1-36.24-28.9-7.73-51.5-33.18-81.8-36.12 3 22.5-28.4 25.56-39.7 39.64 11.2 9.98 28 1.16 40.9 7.32 40.3 10.21 85.8 25.82 107.3 63.87 19 20.13 37.6 41.78 51.4 65.77-2.1 12.2 3.3 24.4 12.6 32.3 11.4 21.9 14.3 48.9 8.4 72.9-7.6 8-9.1 19.4-15.5 28.1-8.8-2.4 0.4-15.9-4.4-20.5-23.6-14.7-24.3-47.7-35.4-70.6-3.2-8.9-13.2-4.7-20-6-20.3-6.3-28.7-28.2-43.1-42.05-7-11.97-17.5-21.15-25.7-32.29-21.6-8.43-27.7-34.81-47-46.18-4.6-0.97-17.1-0.16-13.3 7.3 2.1 9.13-10.7 9.58-16.4 12.78-50.6 13.3-101.5 31.51-154.64 27.59-4.31 7.47-13.18 1.2-19.63 0.38-27.57-1.59-52.73-12.48-77.82-23.31-8.52-0.22-16.06 5.47-24.78 4.74-13.1 2.24-22.83-7.73-33.56-12.86-13.3 12.46-32.32 9.96-48.81 12.17-13.94 7.85-29.71 13.3-45.94 11.67-15.6 0.29-26.72-15.51-42.53-13.64-12.69 0.02-26.3-0.69-36.99-8.21-13.93 8.95-30.47 19.56-47.72 12.81-17.16-9.29-30.49 11.93-47.36 11.9-22.12 2.57-44.63 12.16-66.22 7.86-51.44-1.96-101.23-16.96-151.46-26.84-5.29-1.54-23.51-5.9-15.06-14.08-1.75-5.71-12.3-3.3-15.99 0.33-30.11 33.37-58.22 68.23-88.76 101.23-7.84 11.4-21 17.5-34.53 15.3-13.88 26.2-13.75 62-40.24 80.2-2.08 5.5 3.21 13 0.47 18-7.95-4.2-7.14-16-11.65-23-11.4-8.5-9.32-24.4-8.41-36.7 2.66-16.7 2.31-35.3 12.52-49.5 3.37-4.5 9.55-8.8 7.88-15-3.53-17.5 12.16-30.38 20.45-43.77 10.14-15.93 27.41-27.46 34.01-44.96 32.66-37.84 85.1-60.49 134.93-53.91 1.54-4.14 4.78-8.21 4.91-12.53-13.84-6.12-24.8-16.8-36.95-25.4-0.78-11.37-13.74-5.91-19.88-2.1-51.69 21.33-95.99 56.79-147.59 78.39-7.99 4.22-16.13 1.03-24.01-1.22-12.97 8.93-24.44 21.41-29.54 36.55-8.23 12.44-19.85 22.22-29.55 33.51-12.37 10.91-20.1 28.74-37.35 32.64-3.89 8.5-1.15 19.1-4.6 27.4-7.73-20-9.05-43.29-1.42-63.43 12.11-32.91 31.82-62.82 55.11-88.85 4.53-6.45 13.69-5.6 18.81-11.33-0.01-5.82-1.81-13.19 4.1-16.85 23.2-19.14 47.43-38.08 75.6-49.28 3.51-1.36 3.26-5.96 5.75-8.34 33.29-18.61 71.06-30.6 109.66-26.42-2.17-7.15-18.08-7.31-16.68-18.64-38.47-11.63-87.61-16.88-109.52-55.69-22.1-12.76-38.94-32.46-55.5-51.47-10.88-16.99-29.11-32.65-35.64-53.9 2.13-7.49-5.73-9.46-11.45-10.89-15.68-19.67-25.52-43.03-36.81-65.33-9.96-19.92-12.96-42.6-10.11-64.56 6.93 3.45 4.38 17.72 12.54 22.22 22.38 10.38 34.68 33.02 49.02 51.92 7.91 9.91 13.51 21.47 15.78 33.98 5.88 9.76 17.79-0.6 24.18 7.98 8.07 6.7 14.43 15.17 20.13 23.92 19.14 23.81 43.5 42.7 63.92 65.25 32.37 5.82 57.78 28.21 84.99 44.93 6.51 1.98 11.38-7.07 18.19-2.46 56.83 28.69 115.19 57.28 173.78 80.45 2.42-7.96-12.26-15.56-15.13-23.89-15.01-9.43-23.02-28.13-40.83-33.17-20.59-9.16-42.56-14.95-62.61-25.4-20.23-10.82-41.23-20.78-63.94-25.06-9.96-1.62-14.48-11.34-18.79-19.22-26.53-16.03-43.81-42.16-61.14-66.87-12.53-16.84-19.63-37.84-13.49-58.78-15.07-33.2-24.9-69.84-22.89-106.62-0.69-8.9 12.89-6.86 12.03-15.75 0.61-36.06 19.18-68.95 38.31-98.48 10.39-9.88 21.98-20.4 36.49-23.29-1.85 5.74-9.73 8.2-11.32 14.51 6.07 26.29-2.58 53.56-11.45 78.37-7.13 8.44-13.19 19.31-12.42 30.64 5.33 10.67 15.15 19.26 16.35 31.86 6 38.28 25.09 74.16 24.97 113.31 10.67 16.3 16.33 35.19 23.78 52.99 5.1 4.52 10.99-4.17 16.76-4.42 12.74 0.44 23.61 8.74 34.68 13.78 4.69-4.07 1.84-13.79 2.6-20.04-9.96-7.5-16.37-19.1-15.56-31.43-40.49-12.93-62.08-60.67-54.07-99.55-3.4-26.31 5.25-55.02 16.85-79.02 9.75-15.65 33.46-11.37 42.86-27.59 0.79-11.97 12.14-18.19 18.9-26.71 37.8-45.6 83.54-85.69 136.8-112.21 10.41-6.17 21.12 2.41 31.5 0.99 9.73-14.6 28.4-18.28 43.52-24.97 39.76-13.76 84.38-21.91 125.21-7.98 10.52 4.08 22.26 9.06 27.05 20.12 2.17 6.39-6.14 8.22-10.21 5.46-22.53-10.92-50.42-8.41-71.64 3.92-23.68 7.08-45.56 22.32-59.53 42.41 5.61 7.52 14.46-6.83 21.27-1.75 10.39 7.01 19.7-13.78 27.32 2.13 9.41-2.25 20.27 5.8 28.02-1.8 7.45 9.02 20.59 8.94 31.13 9.99 4.41 6.75 24.96 9.32 17.53 17.78-31.7 4.71-65.72 0.53-95.85 14.04-17.51 4.72-29.97 19.02-46.96 24.96-25.51 22.66-54.58 41.29-80.79 63.27-20.95 16.6-47.05 23.7-71.81 32.35 1.52 6.67-0.35 17.28 4.57 20.59 30.14-21.96 64.36-41.69 103.01-41.92 28.84-14.35 61.18-20.34 93.23-20.75 12.34 1.84 25.59-2.35 36.35-6.8 6.02-12.84 18.29-2.85 27.76-4.14 15.62-20.87 45.02-24.11 68.97-20.3 18.08-7.19 35.63 2.71 53.75 4.11 11.24 2.31 15.14 18.12 26.41 18.34 7.23-8.2 26.33-7.21 24.92 6.17 3.26-1.65 8.37-2.74 12.25 0.2 40.93-4.86 80.93 6.54 118.96 20.14 36.39-5.49 63.89 23.25 94.59 35.83 0.6-14.65-13.3-24.44-14-38.81-0.6-6.5-7.6-9.7-5.3-15.53-11.8-17.14-4.6-38.68-5.2-57.98-45-11.81-84.35-42.39-124.38-66.46-48-25.07-96.08-49.96-144.11-74.89-31.09-13.6-68.03-15.6-94.73-38.3-8.34-7.04-2.48-26.02 10.03-22.22 5.64 2.69 12.74 8.75 18.28 1.99 6.57-7.27 16.93 5.25 23.34-1.48 8.16-13.78 23.16 5.05 34.19-5.92 7.2-10.19 20.81-9.53 30.84-4.21 16.37-14.99 29.62 16.99 45.17 3.23-7.7-9.04-14.69-26.1-28.97-23.5-14.46 1.19-19.78-14.33-27.1-23.63-13.52-7.42-28.51-14.65-43.88-11.77-16.03-15.33-41.85-9.6-62.01-9.18-11.73-0.69-19.22 15.21-30.94 8.98-8.48-5.59-1.65-17.79 3.77-23.24 21.32-21.26 51.56-30.24 80.76-33.84m276.74 843.42c-18.54 0.74-43.19-0.94-54.26 17.59-2.51 3.92-10.47 4.82-7.62 10.87 24.12 1.05 43.52-15.37 64.08-25.32 3.2-1.71 0.8-4.81-2.2-3.14m-537.16 0.64c-1.09 4.72 6.27 4.39 8.66 7.08 17.75 7.95 31.42 29.02 53.14 23.3 9.36-9.79-11.13-15.16-13.08-24.56-15.87-0.38-32.39-5.01-48.72-5.82z"/>
</svg>
