<?xml version="1.0" standalone="no"?>
<!DOCTYPE svg PUBLIC "-//W3C//DTD SVG 20010904//EN"
 "http://www.w3.org/TR/2001/REC-SVG-20010904/DTD/svg10.dtd">
<svg version="1.0" xmlns="http://www.w3.org/2000/svg"
 width="300.000000pt" height="186.000000pt" viewBox="0 0 300.000000 186.000000"
 preserveAspectRatio="xMidYMid meet">
<metadata>
Created by potrace 1.10, written by Peter Selinger 2001-2011
</metadata>
<g transform="translate(0.000000,186.000000) scale(0.100000,-0.100000)"
fill="#000000" stroke="none">
<path d="M1604 1729 c-10 -17 -6 -181 4 -191 20 -20 46 162 27 192 -8 13 -22
13 -31 -1z"/>
<path d="M2285 1555 c-21 -71 -14 -92 12 -40 26 49 32 87 16 92 -7 3 -18 -17
-28 -52z"/>
<path d="M760 1576 c0 -31 121 -158 137 -143 7 8 -35 84 -68 122 -31 35 -69
47 -69 21z m80 -69 c0 -6 -11 2 -25 17 -14 15 -25 30 -25 33 0 4 11 -4 25 -17
14 -13 25 -28 25 -33z"/>
<path d="M1268 1558 c-10 -10 -13 -18 -8 -18 6 0 10 -7 10 -16 0 -13 3 -14 13
-5 8 6 16 8 19 6 3 -3 8 3 11 15 3 13 0 20 -8 20 -7 0 -15 4 -17 8 -1 4 -11 0
-20 -10z"/>
<path d="M2384 1552 c-49 -37 -89 -80 -81 -88 8 -9 87 38 116 70 38 41 14 53
-35 18z"/>
<path d="M2241 1534 c0 -11 3 -14 6 -6 3 7 2 16 -1 19 -3 4 -6 -2 -5 -13z"/>
<path d="M1785 1511 c-7 -12 12 -24 25 -16 11 7 4 25 -10 25 -5 0 -11 -4 -15
-9z"/>
<path d="M1039 1494 c-10 -13 -10 -17 2 -24 17 -11 45 13 35 29 -10 15 -21 14
-37 -5z"/>
<path d="M1976 1492 c-4 -8 -17 -12 -27 -9 -21 6 -25 -3 -8 -20 8 -8 8 -13 0
-17 -17 -11 -13 -26 4 -19 9 3 22 -2 30 -13 14 -19 14 -19 15 0 0 10 8 25 18
32 16 12 16 13 0 14 -9 0 -18 10 -20 23 -2 16 -5 19 -12 9z"/>
<path d="M415 1439 c-39 -12 -87 -48 -64 -49 9 0 33 7 54 16 20 8 39 13 41 11
2 -2 -7 -25 -22 -50 -46 -82 -11 -111 75 -62 24 14 46 23 49 20 3 -3 0 -5 -6
-5 -15 0 -48 -67 -39 -77 4 -4 35 -1 68 5 32 7 65 10 72 7 6 -4 3 1 -8 10 -19
15 -41 14 -97 -1 -12 -4 -7 5 13 25 56 57 20 77 -66 37 -32 -14 -55 -20 -55
-14 0 6 14 34 32 61 30 48 31 50 13 63 -21 16 -19 16 -60 3z"/>
<path d="M2095 1360 c-3 -6 1 -13 10 -16 19 -8 30 0 20 15 -8 14 -22 14 -30 1z"/>
<path d="M1840 1350 c0 -5 7 -10 15 -10 8 0 15 5 15 10 0 6 -7 10 -15 10 -8 0
-15 -4 -15 -10z"/>
<path d="M1182 1338 c6 -18 28 -21 28 -4 0 9 -7 16 -16 16 -9 0 -14 -5 -12
-12z"/>
<path d="M1408 1330 c-159 -28 -296 -160 -352 -339 -20 -62 -55 -211 -81 -341
l-6 -25 21 25 21 25 -6 -40 c-7 -43 -29 -85 -45 -85 -6 0 -10 3 -10 8 -1 4 -3
24 -6 46 -4 26 -3 36 5 32 16 -10 13 45 -7 129 -23 94 -40 96 -80 8 -17 -37
-38 -88 -48 -113 -27 -71 -31 -66 -21 28 12 119 3 222 -23 277 -54 112 -200
120 -300 16 -64 -66 -85 -142 -55 -201 59 -113 217 -56 233 85 3 35 0 50 -13
65 -20 22 -65 26 -83 8 -17 -17 -15 -53 3 -68 12 -10 16 -8 25 14 10 27 34 35
45 15 23 -36 -37 -139 -80 -139 -29 0 -72 50 -80 93 -14 73 54 167 120 167 72
0 121 -76 131 -203 6 -66 -16 -290 -32 -331 -10 -26 48 -21 74 7 11 12 45 81
75 152 31 72 58 123 61 115 2 -8 12 -59 21 -112 20 -113 32 -136 62 -119 26
13 39 53 98 290 24 101 56 207 69 237 34 75 97 138 175 177 61 30 73 32 166
32 121 -1 156 -11 388 -109 183 -78 303 -120 378 -131 89 -13 147 45 135 134
-4 32 -3 41 4 31 15 -23 12 -93 -6 -118 -9 -13 -14 -26 -11 -29 3 -2 13 9 21
26 20 38 21 101 1 127 -8 10 -15 15 -15 11 0 -5 -12 1 -26 12 -47 37 -144 23
-144 -21 0 -21 -2 -21 73 -2 54 13 93 -62 57 -109 -18 -23 -29 -27 -70 -27
-74 0 -159 31 -354 130 -252 127 -381 163 -508 140z m217 -39 c83 -25 145 -52
145 -61 0 -4 -27 3 -60 16 -137 56 -294 58 -403 6 -58 -28 -114 -75 -151 -127
-8 -11 -17 -18 -20 -15 -3 3 20 34 51 68 52 59 126 108 172 115 11 2 24 6 27
10 15 15 179 7 239 -12z m195 -87 c0 -2 -9 0 -20 6 -11 6 -20 13 -20 16 0 2 9
0 20 -6 11 -6 20 -13 20 -16z m-697 -144 c-3 -11 -9 -20 -14 -20 -11 0 -11 3
-3 24 9 23 23 20 17 -4z m-429 -45 c67 -32 83 -93 80 -303 -2 -130 -5 -168
-18 -187 -18 -28 -52 -35 -42 -9 3 9 6 29 6 45 0 17 3 28 8 26 4 -3 9 55 10
127 5 156 -12 233 -59 284 -34 36 -31 39 15 17z m406 -14 c0 -5 -8 -15 -17
-22 -16 -12 -17 -12 -6 2 7 9 10 19 6 22 -3 4 -1 7 5 7 7 0 12 -4 12 -9z m-31
-116 c-8 -41 -15 -60 -19 -50 -8 23 0 75 12 75 5 0 7 4 4 9 -7 11 4 44 11 37
3 -3 -1 -35 -8 -71z m-595 -104 c11 -12 13 -21 7 -25 -5 -4 -19 4 -30 16 -16
16 -21 34 -20 72 l0 51 13 -48 c7 -26 21 -56 30 -66z m565 17 c-2 -45 -20
-118 -28 -118 -4 0 -1 34 7 75 16 80 23 95 21 43z m-125 -14 c3 -8 2 -12 -4
-9 -6 3 -10 10 -10 16 0 14 7 11 14 -7z"/>
<path d="M723 1294 c-9 -19 -8 -24 2 -24 7 0 16 -6 18 -12 4 -10 6 -10 6 0 1
6 7 12 15 12 9 0 12 7 9 20 -3 12 -8 18 -11 15 -3 -2 -10 -1 -16 4 -7 6 -15 1
-23 -15z"/>
<path d="M2730 1274 l0 -38 -28 27 c-15 15 -36 27 -46 27 -15 0 -17 -7 -14
-40 4 -45 2 -47 -24 -24 -20 19 -23 15 -32 -54 -7 -50 9 -50 19 0 l7 31 18
-24 c24 -31 31 -22 32 42 l0 54 28 -34 c37 -44 60 -37 60 18 0 22 -4 43 -10
46 -6 4 -10 -9 -10 -31z"/>
<path d="M2792 1265 c0 -16 2 -22 5 -12 2 9 2 23 0 30 -3 6 -5 -1 -5 -18z"/>
<path d="M957 1239 c-5 -19 14 -32 29 -21 5 4 9 14 10 22 1 21 -34 20 -39 -1z"/>
<path d="M1485 1228 c-48 -27 -116 -142 -129 -218 -5 -28 -2 -25 13 15 26 71
56 127 86 164 42 49 49 36 8 -16 -20 -27 -47 -72 -60 -102 -28 -64 -73 -224
-73 -263 0 -20 -12 -35 -49 -62 -27 -20 -55 -36 -63 -36 -22 0 -38 21 -38 50
0 21 7 29 35 39 48 17 95 66 95 100 0 15 -9 37 -20 49 -65 70 -180 -39 -180
-169 0 -109 72 -134 172 -60 l41 31 19 -30 c34 -57 82 -37 150 60 10 14 15 17
12 8 -3 -9 -1 -33 6 -52 15 -46 54 -63 101 -43 35 14 98 78 100 100 0 7 6 -7
14 -31 7 -23 19 -49 25 -57 19 -23 73 -18 111 10 19 13 45 29 59 35 14 6 34
19 44 28 18 16 19 16 13 0 -17 -48 -18 -85 -2 -98 15 -12 19 -12 30 3 7 10 15
35 19 56 8 50 124 197 141 179 3 -3 -13 -43 -35 -90 -41 -88 -49 -135 -28
-156 22 -22 38 -13 38 21 0 51 110 207 146 207 20 0 18 -5 -18 -68 -42 -73
-45 -144 -9 -174 19 -14 37 -19 75 -17 28 1 61 -3 73 -9 31 -17 46 -15 113 13
33 14 64 25 70 25 16 0 11 -27 -7 -34 -12 -5 -13 -10 -5 -18 16 -16 44 9 40
35 -6 38 -32 43 -86 18 -27 -13 -59 -21 -71 -19 -20 3 -15 8 30 38 90 59 121
141 77 200 -41 56 -127 33 -175 -47 -13 -21 -23 -42 -23 -48 0 -5 10 8 23 30
23 41 79 85 106 84 9 0 6 -4 -9 -10 -65 -26 -124 -124 -118 -195 3 -42 2 -44
-24 -44 -33 0 -58 24 -58 56 0 14 14 57 30 97 38 88 37 111 -7 115 -26 3 -39
-4 -74 -40 -25 -25 -39 -35 -35 -23 21 54 25 80 14 90 -8 7 -9 5 -4 -10 6 -16
5 -18 -5 -7 -25 23 -53 12 -105 -42 l-51 -54 10 37 c12 45 5 71 -21 71 -15 0
-22 -12 -31 -55 -9 -38 -23 -66 -45 -90 -45 -47 -61 -45 -35 5 13 25 22 62 23
94 2 96 -51 121 -142 69 -54 -31 -60 -38 -88 -115 -24 -63 -75 -134 -105 -143
-27 -9 -49 11 -49 44 0 31 50 140 73 160 25 20 49 7 41 -24 -4 -16 -2 -25 5
-25 33 0 16 81 -21 101 -28 15 -71 2 -100 -29 -13 -15 -44 -62 -68 -104 -49
-88 -82 -123 -104 -115 -25 10 -21 89 5 113 34 30 98 130 132 203 22 48 30 82
31 126 l1 60 -32 -1 c-18 -1 -30 2 -27 7 7 11 4 11 -21 -3z m68 -40 c6 -19
-21 -104 -54 -172 -29 -59 -98 -160 -105 -153 -11 11 65 210 109 284 33 54 42
62 50 41z m-115 -116 c-7 -18 -16 -32 -20 -32 -4 0 0 16 9 35 20 42 27 41 11
-3z m-25 -62 c-3 -11 -10 -23 -16 -27 -5 -3 -8 -2 -5 3 3 5 8 17 11 27 9 24
16 22 10 -3z m505 -43 c19 -22 24 -64 12 -106 -7 -26 -15 -39 -22 -35 -7 5 -9
2 -5 -8 3 -9 -1 -24 -8 -35 -13 -17 -15 -17 -31 -1 -24 24 -30 114 -11 161 17
38 45 49 65 24z m-678 -27 c0 -5 -4 -10 -8 -10 -5 0 -22 -23 -37 -52 -22 -41
-29 -66 -29 -115 -1 -35 -2 -63 -3 -63 -1 0 -9 12 -17 28 -17 33 -12 111 9
151 21 42 85 87 85 61z m365 -40 c-41 -61 -58 -111 -53 -155 6 -49 -19 -26
-29 28 -7 36 -5 49 20 94 28 52 59 83 84 83 6 0 -3 -22 -22 -50z m217 -7 c-2
-34 -8 -51 -14 -47 -25 16 5 -53 34 -78 l31 -27 -27 -7 c-40 -10 -56 10 -56
70 -1 42 -3 48 -11 32 -14 -24 -5 -106 12 -117 8 -5 9 -9 3 -9 -33 0 -65 87
-51 135 17 54 32 80 57 92 13 7 25 11 25 10 1 -1 -1 -26 -3 -54z m-534 6 c3
-27 -37 -72 -75 -84 -28 -8 -28 -4 -3 44 36 72 72 90 78 40z m728 -114 c-19
-38 -25 -44 -24 -25 0 14 9 44 19 67 11 24 20 48 21 55 0 7 3 0 5 -17 2 -18
-7 -50 -21 -80z m474 57 c-49 -53 -73 -105 -68 -153 4 -40 -2 -48 -20 -26 -13
16 -8 97 8 128 21 41 73 89 95 89 20 0 18 -4 -15 -38z m-1110 7 c0 -5 -4 -9
-10 -9 -5 0 -10 7 -10 16 0 8 5 12 10 9 6 -3 10 -10 10 -16z m810 7 c0 -8 -16
-37 -35 -66 -42 -62 -44 -57 -9 21 25 56 44 75 44 45z m380 -21 c0 -48 -50
-114 -107 -144 -31 -16 -33 -14 -24 17 13 44 37 86 69 120 37 39 62 42 62 7z
m-298 -77 c-10 -10 -10 -8 -2 37 1 6 4 2 7 -9 3 -10 0 -23 -5 -28z m-5 -55
c-3 -10 -5 -4 -5 12 0 17 2 24 5 18 2 -7 2 -21 0 -30z"/>
<path d="M1474 1054 c-20 -42 -34 -78 -32 -80 2 -2 20 33 40 76 20 44 34 80
32 80 -3 0 -21 -34 -40 -76z"/>
<path d="M1896 956 c10 -8 21 -12 24 -10 5 6 -21 24 -34 24 -6 0 -1 -6 10 -14z"/>
<path d="M1916 889 c-4 -23 -5 -44 -2 -46 2 -2 7 14 11 37 4 23 5 43 2 46 -2
3 -7 -14 -11 -37z"/>
<path d="M1253 898 c-15 -20 -25 -38 -20 -38 3 0 12 11 21 25 17 26 16 35 -1
13z"/>
<path d="M2518 813 c-35 -38 -62 -82 -55 -90 4 -3 11 6 16 20 5 13 24 41 41
61 37 42 36 49 -2 9z"/>
<path d="M1313 1214 c-51 -25 -106 -78 -131 -125 -12 -24 -17 -35 -10 -25 32
49 107 120 148 141 50 26 44 34 -7 9z"/>
<path d="M2010 1205 c0 -8 5 -15 10 -15 6 0 10 7 10 15 0 8 -4 15 -10 15 -5 0
-10 -7 -10 -15z"/>
<path d="M2255 1170 c-13 -6 -15 -9 -5 -9 8 0 22 4 30 9 18 12 2 12 -25 0z"/>
<path d="M786 1113 c-11 -11 -6 -23 9 -23 8 0 15 4 15 9 0 13 -16 22 -24 14z"/>
<path d="M2407 1062 l-17 -37 20 24 c11 13 20 29 20 37 0 21 -3 17 -23 -24z"/>
<path d="M626 1081 c-5 -7 4 -11 24 -11 62 0 126 -54 151 -127 7 -21 13 -68
13 -105 1 -37 5 -63 10 -58 4 4 6 46 4 92 -4 99 -26 150 -77 183 -42 28 -115
43 -125 26z"/>
<path d="M2495 1071 c-6 -11 9 -23 19 -14 9 9 7 23 -3 23 -6 0 -12 -4 -16 -9z"/>
<path d="M1546 1035 c-9 -26 -7 -32 5 -12 6 10 9 21 6 23 -2 3 -7 -2 -11 -11z"/>
<path d="M1146 1025 c-9 -26 -7 -32 5 -12 6 10 9 21 6 23 -2 3 -7 -2 -11 -11z"/>
<path d="M2340 1020 c-8 -5 -10 -10 -5 -10 6 0 17 5 25 10 8 5 11 10 5 10 -5
0 -17 -5 -25 -10z"/>
<path d="M519 969 c-16 -17 -29 -36 -29 -42 0 -6 1 -8 3 -6 1 2 18 21 36 42
19 20 31 37 27 37 -4 0 -21 -14 -37 -31z"/>
<path d="M181 964 c-29 -37 -26 -56 4 -20 l24 30 3 -40 c4 -48 26 -56 50 -17
17 27 17 27 18 6 0 -31 21 -29 55 7 33 34 23 41 -12 8 l-23 -21 0 26 c0 35
-14 34 -42 -4 l-23 -31 -5 38 c-6 47 -22 53 -49 18z"/>
<path d="M1121 944 c0 -11 3 -14 6 -6 3 7 2 16 -1 19 -3 4 -6 -2 -5 -13z"/>
<path d="M1477 908 c-20 -29 -46 -66 -57 -83 -12 -16 -4 -11 17 12 34 39 89
123 80 123 -2 0 -20 -24 -40 -52z"/>
<path d="M1626 863 c-14 -21 -27 -51 -31 -68 -4 -25 -3 -24 9 8 9 21 25 51 36
67 12 17 19 30 16 30 -3 0 -17 -17 -30 -37z"/>
<path d="M2795 863 c-17 -37 -18 -37 -24 -14 -10 37 -24 35 -60 -9 -37 -46
-31 -53 11 -13 l28 27 0 -32 c0 -47 24 -40 57 15 l28 48 8 -53 c8 -46 12 -53
29 -50 13 2 29 19 41 41 26 51 14 60 -15 11 l-22 -38 -8 39 c-16 74 -45 85
-73 28z"/>
<path d="M2361 874 c0 -11 3 -14 6 -6 3 7 2 16 -1 19 -3 4 -6 -2 -5 -13z"/>
<path d="M587 863 c-4 -3 -7 -11 -7 -17 0 -6 5 -5 12 2 6 6 9 14 7 17 -3 3 -9
2 -12 -2z"/>
<path d="M662 850 c0 -14 2 -19 5 -12 2 6 2 18 0 25 -3 6 -5 1 -5 -13z"/>
<path d="M2088 828 c-31 -41 -41 -58 -34 -58 3 0 19 20 36 45 36 52 34 61 -2
13z"/>
<path d="M1266 809 c-21 -16 -35 -29 -30 -29 6 0 25 13 44 30 45 37 37 37 -14
-1z"/>
<path d="M2223 818 c-21 -24 -64 -90 -47 -73 17 17 76 95 72 95 -3 0 -14 -10
-25 -22z"/>
<path d="M640 790 c-7 -17 -27 -42 -44 -55 -17 -14 -26 -25 -20 -25 21 0 93
94 81 106 -2 3 -10 -9 -17 -26z"/>
<path d="M2590 772 c0 -6 -12 -24 -26 -41 -14 -17 -22 -31 -17 -31 12 0 57 69
49 77 -3 3 -6 1 -6 -5z"/>
<path d="M1676 712 c-22 -27 -24 -32 -7 -17 20 17 47 55 39 55 -2 0 -16 -17
-32 -38z"/>
<path d="M1490 724 c0 -11 10 -31 21 -43 18 -20 29 -22 66 -18 25 2 50 10 55
15 8 8 0 8 -24 0 -51 -15 -87 -4 -103 35 -11 24 -14 27 -15 11z"/>
<path d="M1889 713 c-8 -9 -27 -22 -44 -29 -18 -8 -23 -13 -13 -14 16 0 92 59
77 60 -4 0 -13 -7 -20 -17z"/>
<path d="M1291 706 c-6 -8 -25 -19 -42 -26 -16 -7 -27 -15 -25 -18 5 -5 96 45
96 53 0 10 -18 4 -29 -9z"/>
<path d="M1435 689 c-16 -10 -25 -19 -19 -19 7 0 22 9 35 20 30 24 23 24 -16
-1z"/>
<path d="M862 675 c-17 -37 -14 -45 4 -12 9 16 14 31 11 33 -2 2 -9 -7 -15
-21z"/>
<path d="M2010 665 c-8 -9 -8 -15 -2 -15 12 0 26 19 19 26 -2 2 -10 -2 -17
-11z"/>
<path d="M1630 660 c-8 -5 -10 -10 -5 -10 6 0 17 5 25 10 8 5 11 10 5 10 -5 0
-17 -5 -25 -10z"/>
<path d="M390 639 c-69 -31 -103 -69 -62 -69 21 0 122 66 122 80 0 14 -9 12
-60 -11z"/>
<path d="M2145 650 c-3 -5 -1 -10 4 -10 6 0 11 5 11 10 0 6 -2 10 -4 10 -3 0
-8 -4 -11 -10z"/>
<path d="M1573 643 c9 -2 23 -2 30 0 6 3 -1 5 -18 5 -16 0 -22 -2 -12 -5z"/>
<path d="M904 598 c4 -55 28 -98 55 -98 25 0 71 38 71 58 0 12 -4 9 -13 -8
-15 -30 -62 -49 -79 -32 -6 6 -17 38 -25 69 l-13 58 4 -47z"/>
<path d="M2510 625 c-14 -8 -20 -14 -15 -14 6 0 21 6 35 14 14 8 21 14 15 14
-5 0 -21 -6 -35 -14z"/>
<path d="M2631 628 c-1 -9 -9 -22 -18 -27 -10 -6 -13 -11 -7 -11 17 0 37 27
31 42 -4 8 -6 7 -6 -4z"/>
<path d="M808 550 c-31 -69 -40 -80 -69 -89 -25 -7 -28 -9 -12 -10 34 -1 70
38 97 108 14 35 25 66 23 67 -2 2 -19 -32 -39 -76z"/>
<path d="M560 549 c0 -25 33 -22 38 4 2 12 -3 17 -17 17 -15 0 -21 -6 -21 -21z"/>
<path d="M2145 559 c-10 -15 3 -25 16 -12 7 7 7 13 1 17 -6 3 -14 1 -17 -5z"/>
<path d="M1825 550 c-3 -6 1 -13 10 -16 19 -8 30 0 20 15 -8 14 -22 14 -30 1z"/>
<path d="M1665 510 c-3 -5 1 -10 9 -10 9 0 16 5 16 10 0 6 -4 10 -9 10 -6 0
-13 -4 -16 -10z"/>
<path d="M1480 500 c0 -5 5 -10 10 -10 6 0 10 5 10 10 0 6 -4 10 -10 10 -5 0
-10 -4 -10 -10z"/>
<path d="M975 490 c-16 -7 -17 -9 -3 -9 9 -1 20 4 23 9 7 11 7 11 -20 0z"/>
<path d="M1268 458 c-4 -10 3 -36 16 -62 13 -25 22 -46 21 -46 -1 0 -18 7 -38
15 -29 12 -37 12 -46 1 -9 -11 -3 -23 25 -57 20 -24 43 -49 52 -56 15 -11 14
-12 -8 -13 -14 0 -42 5 -63 11 -41 11 -67 0 -67 -27 0 -21 82 -101 87 -86 3 8
-10 29 -28 48 -18 18 -31 36 -28 38 2 2 27 -1 56 -7 46 -9 55 -9 72 7 20 18
20 18 -6 52 -15 18 -37 38 -50 45 -13 7 -23 17 -23 22 0 6 5 6 13 0 17 -14 56
-23 73 -16 21 8 17 25 -15 69 -16 21 -31 48 -33 59 -3 18 -4 18 -10 3z"/>
<path d="M2360 450 c0 -5 7 -10 15 -10 8 0 15 5 15 10 0 6 -7 10 -15 10 -8 0
-15 -4 -15 -10z"/>
<path d="M1785 411 c-6 -16 12 -32 29 -25 7 3 12 12 12 22 0 21 -33 24 -41 3z"/>
<path d="M2560 391 c0 -16 86 -101 103 -101 32 0 17 29 -34 70 -50 40 -69 48
-69 31z"/>
<path d="M1545 371 c-7 -12 12 -24 25 -16 11 7 4 25 -10 25 -5 0 -11 -4 -15
-9z"/>
<path d="M535 352 c-7 -20 -6 -24 5 -17 6 3 10 2 10 -4 0 -6 6 -8 13 -5 7 2
13 12 13 22 0 21 -33 24 -41 4z"/>
<path d="M2210 345 c0 -9 -9 -15 -22 -15 -22 -1 -22 -1 -4 -15 12 -9 17 -21
13 -35 -5 -21 -5 -21 13 -5 12 11 20 13 25 6 11 -19 27 -12 20 8 -3 11 -1 22
5 26 16 10 12 25 -5 19 -8 -4 -17 1 -21 10 -8 20 -24 21 -24 1z"/>
<path d="M1645 307 c-15 -78 12 -170 29 -101 8 32 -3 134 -15 134 -4 0 -11
-15 -14 -33z"/>
<path d="M791 291 c-33 -41 -52 -101 -32 -101 14 0 81 111 81 135 0 15 -23 0
-49 -34z"/>
<path d="M1602 305 c0 -16 2 -22 5 -12 2 9 2 23 0 30 -3 6 -5 -1 -5 -18z"/>
<path d="M1860 303 c0 -7 -4 -13 -10 -13 -5 0 -10 -4 -10 -10 0 -5 7 -10 15
-10 8 0 15 -8 15 -17 1 -17 1 -17 14 0 7 9 19 17 27 17 10 0 10 3 2 11 -6 6
-9 17 -7 24 4 9 -3 12 -20 11 -14 0 -26 -7 -26 -13z"/>
<path d="M705 299 c-10 -15 3 -25 16 -12 7 7 7 13 1 17 -6 3 -14 1 -17 -5z"/>
<path d="M1016 275 c-3 -8 -13 -15 -22 -15 -13 0 -14 -3 -4 -15 10 -12 10 -18
-1 -31 -12 -15 -11 -16 9 -10 14 5 29 3 37 -4 12 -10 15 -9 15 8 0 12 7 25 17
30 14 9 14 10 -5 16 -12 4 -22 14 -22 22 0 19 -16 18 -24 -1z"/>
</g>
</svg>
